<svg width="43" height="43" viewBox="0 0 39 43" fill="none" xmlns="http://www.w3.org/2000/svg">
<path fill-rule="evenodd" clip-rule="evenodd" d="M6.52851 10.9326L3.48493 10.4836C1.28947 13.5989 6.10352e-05 17.3988 6.10352e-05 21.5C6.10352e-05 25.5984 1.28775 29.396 3.48056 32.5101L6.52835 32.0605C9.12609 35.5041 13.55 37.6918 18.5607 38.0105L19.51 40.6398C29.9098 40.4425 38.2797 31.9489 38.2797 21.5C38.2797 11.0503 29.9086 2.55618 19.5077 2.36012L18.5609 4.98265C13.5502 5.30134 9.12625 7.48902 6.52851 10.9326ZM31.9633 23.81C32.0743 23.1898 32.1413 22.5543 32.1612 21.907H35.8832C36.007 22.0723 36.2045 22.1792 36.4269 22.1792C36.802 22.1792 37.1061 21.8751 37.1061 21.5C37.1061 21.1248 36.802 20.8207 36.4269 20.8207C36.2045 20.8207 36.007 20.9277 35.8832 21.093H32.1612C32.1413 20.4456 32.0743 19.8102 31.9633 19.1899H34.2101C34.3339 19.3552 34.5314 19.4622 34.7538 19.4622C35.1289 19.4622 35.433 19.1581 35.433 18.7829C35.433 18.4078 35.1289 18.1037 34.7538 18.1037C34.5314 18.1037 34.3339 18.2106 34.2101 18.3759H31.7906C31.6294 17.7207 31.4186 17.0849 31.1625 16.4729H32.7066C32.8305 16.6382 33.028 16.7451 33.2504 16.7451C33.6255 16.7451 33.9296 16.441 33.9296 16.0659C33.9296 15.6907 33.6255 15.3866 33.2504 15.3866C33.028 15.3866 32.8305 15.4935 32.7066 15.6589H30.7883C28.6471 11.3956 24.2351 8.47005 19.1399 8.47005C14.0447 8.47005 9.63273 11.3956 7.49151 15.6589H4.75725C4.53251 15.6589 4.35032 15.8411 4.35032 16.0659C4.35032 16.2906 4.53251 16.4729 4.75725 16.4729H7.1173C6.86117 17.0849 6.6504 17.7207 6.48919 18.3759H3.25384C3.0291 18.3759 2.84691 18.5581 2.84691 18.7829C2.84691 19.0077 3.0291 19.1899 3.25384 19.1899H6.31645C6.2055 19.8102 6.13843 20.4456 6.11858 21.093H1.58073C1.35599 21.093 1.1738 21.2752 1.1738 21.5C1.1738 21.7248 1.35599 21.907 1.58073 21.907H6.11858C6.13844 22.5543 6.2055 23.1898 6.31645 23.81H3.25384C3.0291 23.81 2.84691 23.9923 2.84691 24.217C2.84691 24.4418 3.0291 24.6241 3.25384 24.6241H6.48919C6.6504 25.2793 6.86118 25.9151 7.11731 26.5271H4.75725C4.53251 26.5271 4.35032 26.7093 4.35032 26.9341C4.35032 27.1589 4.53251 27.3411 4.75725 27.3411H7.49152C9.63274 31.6043 14.0447 34.5299 19.1399 34.5299C24.2351 34.5299 28.647 31.6043 30.7883 27.3411H32.7066C32.8305 27.5064 33.028 27.6134 33.2504 27.6134C33.6255 27.6134 33.9296 27.3093 33.9296 26.9341C33.9296 26.559 33.6255 26.2548 33.2504 26.2548C33.028 26.2548 32.8305 26.3618 32.7066 26.5271H31.1625C31.4186 25.9151 31.6294 25.2793 31.7906 24.6241H34.2101C34.3339 24.7894 34.5314 24.8963 34.7538 24.8963C35.1289 24.8963 35.433 24.5922 35.433 24.217C35.433 23.8419 35.1289 23.5378 34.7538 23.5378C34.5314 23.5378 34.3339 23.6447 34.2101 23.81H31.9633Z" fill="white"/>
<path d="M16.947 2.48713C12.2734 3.0192 8.11075 5.23452 5.08005 8.51198L6.88471 8.85577C9.4409 6.37774 12.7462 4.66797 16.4281 4.09884L16.947 2.48713Z" fill="white"/>
<path fill-rule="evenodd" clip-rule="evenodd" d="M6.52851 32.0673L3.48493 32.5163C1.28947 29.401 6.10352e-05 25.6011 6.10352e-05 21.5C6.10352e-05 17.4016 1.28775 13.6039 3.48056 10.4898L6.52835 10.9394C9.12609 7.49581 13.55 5.30813 18.5607 4.98944L19.51 2.36012C29.9098 2.55738 38.2797 11.0511 38.2797 21.5C38.2797 31.9496 29.9086 40.4437 19.5077 40.6398L18.5609 38.0173C13.5502 37.6986 9.12625 35.5109 6.52851 32.0673ZM31.9633 19.1899C32.0743 19.8102 32.1413 20.4456 32.1612 21.093H35.8832C36.007 20.9277 36.2045 20.8207 36.4269 20.8207C36.802 20.8207 37.1061 21.1248 37.1061 21.5C37.1061 21.8751 36.802 22.1792 36.4269 22.1792C36.2045 22.1792 36.007 22.0723 35.8832 21.907H32.1612C32.1413 22.5543 32.0743 23.1898 31.9633 23.81H34.2101C34.3339 23.6447 34.5314 23.5378 34.7538 23.5378C35.1289 23.5378 35.433 23.8419 35.433 24.217C35.433 24.5922 35.1289 24.8963 34.7538 24.8963C34.5314 24.8963 34.3339 24.7894 34.2101 24.6241H31.7906C31.6294 25.2793 31.4186 25.9151 31.1625 26.5271H32.7066C32.8305 26.3618 33.028 26.2548 33.2504 26.2548C33.6255 26.2548 33.9296 26.559 33.9296 26.9341C33.9296 27.3093 33.6255 27.6134 33.2504 27.6134C33.028 27.6134 32.8305 27.5064 32.7066 27.3411H30.7883C28.647 31.6043 24.2351 34.5299 19.1399 34.5299C14.0447 34.5299 9.63274 31.6043 7.49152 27.3411H4.75725C4.53251 27.3411 4.35032 27.1589 4.35032 26.9341C4.35032 26.7093 4.53251 26.5271 4.75725 26.5271H7.11731C6.86118 25.9151 6.6504 25.2793 6.48919 24.6241H3.25384C3.0291 24.6241 2.84691 24.4418 2.84691 24.217C2.84691 23.9923 3.0291 23.81 3.25384 23.81H6.31645C6.2055 23.1898 6.13844 22.5543 6.11858 21.907H1.58073C1.35599 21.907 1.1738 21.7248 1.1738 21.5C1.1738 21.2752 1.35599 21.093 1.58073 21.093H6.11858C6.13843 20.4456 6.2055 19.8102 6.31645 19.1899H3.25384C3.0291 19.1899 2.84691 19.0077 2.84691 18.7829C2.84691 18.5581 3.0291 18.3759 3.25384 18.3759H6.48919C6.6504 17.7207 6.86117 17.0849 7.1173 16.4729H4.75725C4.53251 16.4729 4.35032 16.2906 4.35032 16.0659C4.35032 15.8411 4.53251 15.6589 4.75725 15.6589H7.49151C9.63273 11.3956 14.0447 8.47005 19.1399 8.47005C24.2351 8.47005 28.6471 11.3956 30.7883 15.6589H32.7066C32.8305 15.4935 33.028 15.3866 33.2504 15.3866C33.6255 15.3866 33.9296 15.6907 33.9296 16.0659C33.9296 16.441 33.6255 16.7451 33.2504 16.7451C33.028 16.7451 32.8305 16.6382 32.7066 16.4729H31.1625C31.4186 17.0849 31.6294 17.7207 31.7906 18.3759H34.2101C34.3339 18.2106 34.5314 18.1037 34.7538 18.1037C35.1289 18.1037 35.433 18.4078 35.433 18.7829C35.433 19.1581 35.1289 19.4622 34.7538 19.4622C34.5314 19.4622 34.3339 19.3552 34.2101 19.1899H31.9633Z" fill="white"/>
<path d="M16.947 40.5128C12.2734 39.9807 8.11075 37.7654 5.08005 34.4879L6.88471 34.1441C9.4409 36.6222 12.7462 38.3319 16.4281 38.9011L16.947 40.5128Z" fill="white"/>
</svg>