<svg width="185" height="43" viewBox="0 0 185 43" fill="none" xmlns="http://www.w3.org/2000/svg">
<path fill-rule="evenodd" clip-rule="evenodd" d="M6.52851 10.9326L3.48493 10.4836C1.28947 13.5989 6.10352e-05 17.3988 6.10352e-05 21.5C6.10352e-05 25.5984 1.28775 29.396 3.48056 32.5101L6.52835 32.0605C9.12609 35.5041 13.55 37.6918 18.5607 38.0105L19.51 40.6398C29.9098 40.4425 38.2797 31.9489 38.2797 21.5C38.2797 11.0503 29.9086 2.55618 19.5077 2.36012L18.5609 4.98265C13.5502 5.30134 9.12625 7.48902 6.52851 10.9326ZM31.9633 23.81C32.0743 23.1898 32.1413 22.5543 32.1612 21.907H35.8832C36.007 22.0723 36.2045 22.1792 36.4269 22.1792C36.802 22.1792 37.1061 21.8751 37.1061 21.5C37.1061 21.1248 36.802 20.8207 36.4269 20.8207C36.2045 20.8207 36.007 20.9277 35.8832 21.093H32.1612C32.1413 20.4456 32.0743 19.8102 31.9633 19.1899H34.2101C34.3339 19.3552 34.5314 19.4622 34.7538 19.4622C35.1289 19.4622 35.433 19.1581 35.433 18.7829C35.433 18.4078 35.1289 18.1037 34.7538 18.1037C34.5314 18.1037 34.3339 18.2106 34.2101 18.3759H31.7906C31.6294 17.7207 31.4186 17.0849 31.1625 16.4729H32.7066C32.8305 16.6382 33.028 16.7451 33.2504 16.7451C33.6255 16.7451 33.9296 16.441 33.9296 16.0659C33.9296 15.6907 33.6255 15.3866 33.2504 15.3866C33.028 15.3866 32.8305 15.4935 32.7066 15.6589H30.7883C28.6471 11.3956 24.2351 8.47005 19.1399 8.47005C14.0447 8.47005 9.63273 11.3956 7.49151 15.6589H4.75725C4.53251 15.6589 4.35032 15.8411 4.35032 16.0659C4.35032 16.2906 4.53251 16.4729 4.75725 16.4729H7.1173C6.86117 17.0849 6.6504 17.7207 6.48919 18.3759H3.25384C3.0291 18.3759 2.84691 18.5581 2.84691 18.7829C2.84691 19.0077 3.0291 19.1899 3.25384 19.1899H6.31645C6.2055 19.8102 6.13843 20.4456 6.11858 21.093H1.58073C1.35599 21.093 1.1738 21.2752 1.1738 21.5C1.1738 21.7248 1.35599 21.907 1.58073 21.907H6.11858C6.13844 22.5543 6.2055 23.1898 6.31645 23.81H3.25384C3.0291 23.81 2.84691 23.9923 2.84691 24.217C2.84691 24.4418 3.0291 24.6241 3.25384 24.6241H6.48919C6.6504 25.2793 6.86118 25.9151 7.11731 26.5271H4.75725C4.53251 26.5271 4.35032 26.7093 4.35032 26.9341C4.35032 27.1589 4.53251 27.3411 4.75725 27.3411H7.49152C9.63274 31.6043 14.0447 34.5299 19.1399 34.5299C24.2351 34.5299 28.647 31.6043 30.7883 27.3411H32.7066C32.8305 27.5064 33.028 27.6134 33.2504 27.6134C33.6255 27.6134 33.9296 27.3093 33.9296 26.9341C33.9296 26.559 33.6255 26.2548 33.2504 26.2548C33.028 26.2548 32.8305 26.3618 32.7066 26.5271H31.1625C31.4186 25.9151 31.6294 25.2793 31.7906 24.6241H34.2101C34.3339 24.7894 34.5314 24.8963 34.7538 24.8963C35.1289 24.8963 35.433 24.5922 35.433 24.217C35.433 23.8419 35.1289 23.5378 34.7538 23.5378C34.5314 23.5378 34.3339 23.6447 34.2101 23.81H31.9633Z" fill="white"/>
<path d="M16.947 2.48713C12.2734 3.0192 8.11075 5.23452 5.08005 8.51198L6.88471 8.85577C9.4409 6.37774 12.7462 4.66797 16.4281 4.09884L16.947 2.48713Z" fill="white"/>
<path fill-rule="evenodd" clip-rule="evenodd" d="M6.52851 32.0673L3.48493 32.5163C1.28947 29.401 6.10352e-05 25.6011 6.10352e-05 21.5C6.10352e-05 17.4016 1.28775 13.6039 3.48056 10.4898L6.52835 10.9394C9.12609 7.49581 13.55 5.30813 18.5607 4.98944L19.51 2.36012C29.9098 2.55738 38.2797 11.0511 38.2797 21.5C38.2797 31.9496 29.9086 40.4437 19.5077 40.6398L18.5609 38.0173C13.5502 37.6986 9.12625 35.5109 6.52851 32.0673ZM31.9633 19.1899C32.0743 19.8102 32.1413 20.4456 32.1612 21.093H35.8832C36.007 20.9277 36.2045 20.8207 36.4269 20.8207C36.802 20.8207 37.1061 21.1248 37.1061 21.5C37.1061 21.8751 36.802 22.1792 36.4269 22.1792C36.2045 22.1792 36.007 22.0723 35.8832 21.907H32.1612C32.1413 22.5543 32.0743 23.1898 31.9633 23.81H34.2101C34.3339 23.6447 34.5314 23.5378 34.7538 23.5378C35.1289 23.5378 35.433 23.8419 35.433 24.217C35.433 24.5922 35.1289 24.8963 34.7538 24.8963C34.5314 24.8963 34.3339 24.7894 34.2101 24.6241H31.7906C31.6294 25.2793 31.4186 25.9151 31.1625 26.5271H32.7066C32.8305 26.3618 33.028 26.2548 33.2504 26.2548C33.6255 26.2548 33.9296 26.559 33.9296 26.9341C33.9296 27.3093 33.6255 27.6134 33.2504 27.6134C33.028 27.6134 32.8305 27.5064 32.7066 27.3411H30.7883C28.647 31.6043 24.2351 34.5299 19.1399 34.5299C14.0447 34.5299 9.63274 31.6043 7.49152 27.3411H4.75725C4.53251 27.3411 4.35032 27.1589 4.35032 26.9341C4.35032 26.7093 4.53251 26.5271 4.75725 26.5271H7.11731C6.86118 25.9151 6.6504 25.2793 6.48919 24.6241H3.25384C3.0291 24.6241 2.84691 24.4418 2.84691 24.217C2.84691 23.9923 3.0291 23.81 3.25384 23.81H6.31645C6.2055 23.1898 6.13844 22.5543 6.11858 21.907H1.58073C1.35599 21.907 1.1738 21.7248 1.1738 21.5C1.1738 21.2752 1.35599 21.093 1.58073 21.093H6.11858C6.13843 20.4456 6.2055 19.8102 6.31645 19.1899H3.25384C3.0291 19.1899 2.84691 19.0077 2.84691 18.7829C2.84691 18.5581 3.0291 18.3759 3.25384 18.3759H6.48919C6.6504 17.7207 6.86117 17.0849 7.1173 16.4729H4.75725C4.53251 16.4729 4.35032 16.2906 4.35032 16.0659C4.35032 15.8411 4.53251 15.6589 4.75725 15.6589H7.49151C9.63273 11.3956 14.0447 8.47005 19.1399 8.47005C24.2351 8.47005 28.6471 11.3956 30.7883 15.6589H32.7066C32.8305 15.4935 33.028 15.3866 33.2504 15.3866C33.6255 15.3866 33.9296 15.6907 33.9296 16.0659C33.9296 16.441 33.6255 16.7451 33.2504 16.7451C33.028 16.7451 32.8305 16.6382 32.7066 16.4729H31.1625C31.4186 17.0849 31.6294 17.7207 31.7906 18.3759H34.2101C34.3339 18.2106 34.5314 18.1037 34.7538 18.1037C35.1289 18.1037 35.433 18.4078 35.433 18.7829C35.433 19.1581 35.1289 19.4622 34.7538 19.4622C34.5314 19.4622 34.3339 19.3552 34.2101 19.1899H31.9633Z" fill="white"/>
<path d="M16.947 40.5128C12.2734 39.9807 8.11075 37.7654 5.08005 34.4879L6.88471 34.1441C9.4409 36.6222 12.7462 38.3319 16.4281 38.9011L16.947 40.5128Z" fill="white"/>
<path d="M41.361 16.7756H45.1328V20.3006H45.2033C45.3208 19.8071 45.544 19.3253 45.873 18.8553C46.2255 18.3853 46.6368 17.9623 47.1068 17.5863C47.6003 17.1868 48.1408 16.8696 48.7283 16.6346C49.3158 16.3996 49.9151 16.2821 50.5261 16.2821C50.9961 16.2821 51.3133 16.2938 51.4778 16.3173C51.6658 16.3408 51.8538 16.3643 52.0418 16.3878V20.2654C51.7598 20.2184 51.4661 20.1831 51.1606 20.1596C50.8786 20.1126 50.5966 20.0891 50.3146 20.0891C49.6331 20.0891 48.9868 20.2301 48.3758 20.5121C47.7883 20.7706 47.2713 21.1701 46.8248 21.7106C46.3783 22.2276 46.0258 22.8739 45.7673 23.6494C45.5088 24.4249 45.3795 25.3179 45.3795 26.3284V35H41.361V16.7756ZM53.8594 9.83126H57.878V19.1373H57.9485C58.2305 18.6908 58.5712 18.2913 58.9707 17.9388C59.3702 17.5863 59.805 17.2926 60.275 17.0576C60.7685 16.7991 61.2738 16.6111 61.7908 16.4936C62.3313 16.3526 62.86 16.2821 63.377 16.2821C64.8105 16.2821 66.0561 16.5406 67.1136 17.0576C68.1946 17.5511 69.0876 18.2443 69.7926 19.1373C70.4976 20.0069 71.0264 21.0291 71.3789 22.2041C71.7314 23.3791 71.9076 24.6364 71.9076 25.9759C71.9076 27.1979 71.7431 28.3847 71.4141 29.5362C71.1086 30.6877 70.6269 31.71 69.9688 32.603C69.3343 33.4725 68.5236 34.1775 67.5366 34.718C66.5496 35.235 65.3863 35.4935 64.0468 35.4935C63.4358 35.4935 62.813 35.4465 62.1785 35.3525C61.5675 35.282 60.98 35.1293 60.416 34.8942C59.852 34.6592 59.335 34.3537 58.865 33.9777C58.4185 33.6017 58.0425 33.1082 57.737 32.4972H57.6665V35H53.8594V9.83126ZM67.8891 25.9054C67.8891 25.0829 67.7833 24.2839 67.5718 23.5084C67.3603 22.7329 67.0431 22.0514 66.6201 21.4639C66.1971 20.8529 65.6683 20.3711 65.0338 20.0186C64.3993 19.6426 63.6708 19.4546 62.8483 19.4546C61.1563 19.4546 59.8755 20.0421 59.006 21.2171C58.16 22.3921 57.737 23.9549 57.737 25.9054C57.737 26.8219 57.8427 27.6797 58.0542 28.4787C58.2892 29.2542 58.63 29.924 59.0765 30.488C59.523 31.052 60.0517 31.4985 60.6628 31.8275C61.2973 32.1565 62.0258 32.321 62.8483 32.321C63.7648 32.321 64.5403 32.133 65.1748 31.757C65.8093 31.381 66.3263 30.8992 66.7258 30.3117C67.1488 29.7007 67.4426 29.0192 67.6071 28.2672C67.7951 27.4917 67.8891 26.7044 67.8891 25.9054ZM73.4702 16.7756H76.5017V11.3118H80.5203V16.7756H84.151V19.7719H80.5203V29.5009C80.5203 29.924 80.532 30.2882 80.5555 30.5937C80.6025 30.8992 80.6848 31.1577 80.8023 31.3692C80.9433 31.5807 81.143 31.7452 81.4015 31.8627C81.66 31.9567 82.0125 32.0037 82.459 32.0037C82.741 32.0037 83.023 32.0037 83.305 32.0037C83.587 31.9802 83.869 31.9332 84.151 31.8627V34.9647C83.7045 35.0118 83.2698 35.0588 82.8468 35.1058C82.4238 35.1528 81.989 35.1763 81.5425 35.1763C80.485 35.1763 79.6273 35.0823 78.9692 34.8942C78.3347 34.6827 77.8295 34.389 77.4535 34.013C77.101 33.6135 76.8542 33.12 76.7132 32.5325C76.5957 31.945 76.5252 31.2752 76.5017 30.5232V19.7719H73.4702V16.7756ZM87.0418 16.7756H90.8136V20.3006H90.8841C91.0016 19.8071 91.2249 19.3253 91.5539 18.8553C91.9064 18.3853 92.3176 17.9623 92.7877 17.5863C93.2812 17.1868 93.8217 16.8696 94.4092 16.6346C94.9967 16.3996 95.5959 16.2821 96.2069 16.2821C96.6769 16.2821 96.9942 16.2938 97.1587 16.3173C97.3467 16.3408 97.5347 16.3643 97.7227 16.3878V20.2654C97.4407 20.2184 97.1469 20.1831 96.8414 20.1596C96.5594 20.1126 96.2774 20.0891 95.9954 20.0891C95.3139 20.0891 94.6677 20.2301 94.0567 20.5121C93.4692 20.7706 92.9522 21.1701 92.5056 21.7106C92.0591 22.2276 91.7066 22.8739 91.4481 23.6494C91.1896 24.4249 91.0604 25.3179 91.0604 26.3284V35H87.0418V16.7756ZM107.169 35.4935C105.712 35.4935 104.408 35.2585 103.256 34.7885C102.128 34.295 101.165 33.6252 100.366 32.7792C99.5904 31.9332 98.9912 30.9227 98.5682 29.7477C98.1687 28.5727 97.9689 27.2802 97.9689 25.8702C97.9689 24.4836 98.1687 23.2029 98.5682 22.0279C98.9912 20.8529 99.5904 19.8424 100.366 18.9963C101.165 18.1503 102.128 17.4923 103.256 17.0223C104.408 16.5288 105.712 16.2821 107.169 16.2821C108.626 16.2821 109.919 16.5288 111.047 17.0223C112.198 17.4923 113.162 18.1503 113.937 18.9963C114.736 19.8424 115.336 20.8529 115.735 22.0279C116.158 23.2029 116.37 24.4836 116.37 25.8702C116.37 27.2802 116.158 28.5727 115.735 29.7477C115.336 30.9227 114.736 31.9332 113.937 32.7792C113.162 33.6252 112.198 34.295 111.047 34.7885C109.919 35.2585 108.626 35.4935 107.169 35.4935ZM107.169 32.321C108.062 32.321 108.838 32.133 109.496 31.757C110.154 31.381 110.694 30.8875 111.117 30.2765C111.54 29.6654 111.846 28.9839 112.034 28.2319C112.245 27.4564 112.351 26.6692 112.351 25.8702C112.351 25.0947 112.245 24.3191 112.034 23.5436C111.846 22.7681 111.54 22.0866 111.117 21.4991C110.694 20.8881 110.154 20.3946 109.496 20.0186C108.838 19.6426 108.062 19.4546 107.169 19.4546C106.276 19.4546 105.501 19.6426 104.843 20.0186C104.185 20.3946 103.644 20.8881 103.221 21.4991C102.798 22.0866 102.481 22.7681 102.269 23.5436C102.081 24.3191 101.987 25.0947 101.987 25.8702C101.987 26.6692 102.081 27.4564 102.269 28.2319C102.481 28.9839 102.798 29.6654 103.221 30.2765C103.644 30.8875 104.185 31.381 104.843 31.757C105.501 32.133 106.276 32.321 107.169 32.321ZM119.71 16.7756H123.517V19.4546L123.588 19.5251C124.199 18.5146 124.998 17.7273 125.985 17.1633C126.972 16.5758 128.065 16.2821 129.263 16.2821C131.261 16.2821 132.835 16.7991 133.987 17.8331C135.138 18.8671 135.714 20.4181 135.714 22.4861V35H131.695V23.5436C131.648 22.1101 131.343 21.0761 130.779 20.4416C130.215 19.7836 129.334 19.4546 128.135 19.4546C127.454 19.4546 126.843 19.5839 126.302 19.8424C125.762 20.0774 125.303 20.4181 124.927 20.8646C124.551 21.2876 124.258 21.7929 124.046 22.3804C123.835 22.9679 123.729 23.5906 123.729 24.2486V35H119.71V16.7756ZM140.058 9.83126H144.076V13.6383H140.058V9.83126ZM140.058 16.7756H144.076V35H140.058V16.7756ZM160.757 22.8739C160.592 21.7459 160.134 20.8999 159.382 20.3359C158.654 19.7484 157.725 19.4546 156.597 19.4546C156.08 19.4546 155.528 19.5486 154.941 19.7366C154.353 19.9011 153.813 20.2301 153.319 20.7236C152.826 21.1936 152.414 21.8634 152.085 22.7329C151.756 23.5789 151.592 24.6952 151.592 26.0817C151.592 26.8337 151.674 27.5857 151.839 28.3377C152.027 29.0897 152.309 29.7594 152.685 30.347C153.084 30.9345 153.589 31.4162 154.2 31.7922C154.811 32.1447 155.552 32.321 156.421 32.321C157.596 32.321 158.56 31.9567 159.312 31.2282C160.087 30.4997 160.569 29.4774 160.757 28.1614H164.775C164.399 30.535 163.495 32.3562 162.061 33.6252C160.651 34.8707 158.771 35.4935 156.421 35.4935C154.988 35.4935 153.719 35.2585 152.614 34.7885C151.533 34.295 150.617 33.637 149.865 32.8145C149.113 31.9685 148.537 30.9697 148.137 29.8182C147.761 28.6667 147.573 27.4212 147.573 26.0817C147.573 24.7187 147.761 23.4379 148.137 22.2394C148.513 21.0409 149.077 20.0069 149.829 19.1373C150.581 18.2443 151.51 17.5511 152.614 17.0576C153.742 16.5406 155.058 16.2821 156.562 16.2821C157.62 16.2821 158.618 16.4231 159.558 16.7051C160.522 16.9636 161.368 17.3631 162.096 17.9036C162.848 18.4441 163.459 19.1256 163.929 19.9481C164.399 20.7706 164.681 21.7459 164.775 22.8739H160.757ZM171.073 29.1484C171.191 30.3235 171.637 31.146 172.413 31.616C173.188 32.086 174.117 32.321 175.198 32.321C175.574 32.321 175.997 32.2975 176.467 32.2505C176.96 32.18 177.418 32.0625 177.841 31.898C178.264 31.7335 178.605 31.4985 178.864 31.193C179.146 30.864 179.275 30.441 179.251 29.924C179.228 29.4069 179.04 28.9839 178.687 28.6549C178.335 28.3259 177.877 28.0674 177.313 27.8794C176.772 27.6679 176.149 27.4917 175.444 27.3507C174.739 27.2097 174.023 27.0569 173.294 26.8924C172.542 26.7279 171.814 26.5282 171.109 26.2932C170.427 26.0582 169.804 25.7409 169.24 25.3414C168.7 24.9419 168.265 24.4366 167.936 23.8256C167.607 23.1911 167.443 22.4156 167.443 21.4991C167.443 20.5121 167.678 19.6896 168.148 19.0316C168.641 18.3501 169.252 17.8096 169.981 17.4101C170.733 16.9871 171.555 16.6933 172.448 16.5288C173.365 16.3643 174.234 16.2821 175.057 16.2821C175.997 16.2821 176.89 16.3878 177.736 16.5993C178.605 16.7873 179.381 17.1046 180.062 17.5511C180.767 17.9976 181.343 18.5851 181.79 19.3136C182.26 20.0186 182.553 20.8764 182.671 21.8869H178.476C178.288 20.9234 177.841 20.2771 177.136 19.9481C176.455 19.6191 175.668 19.4546 174.775 19.4546C174.493 19.4546 174.152 19.4781 173.752 19.5251C173.376 19.5721 173.012 19.6661 172.66 19.8071C172.331 19.9246 172.049 20.1126 171.814 20.3711C171.579 20.6061 171.461 20.9234 171.461 21.3229C171.461 21.8164 171.626 22.2159 171.955 22.5214C172.307 22.8269 172.754 23.0854 173.294 23.2969C173.858 23.4849 174.493 23.6494 175.198 23.7904C175.903 23.9314 176.631 24.0841 177.383 24.2486C178.112 24.4131 178.828 24.6129 179.533 24.8479C180.239 25.0829 180.861 25.4002 181.402 25.7997C181.966 26.1992 182.412 26.7044 182.741 27.3154C183.094 27.9264 183.27 28.6784 183.27 29.5714C183.27 30.6525 183.023 31.569 182.53 32.321C182.036 33.073 181.39 33.684 180.591 34.154C179.815 34.624 178.946 34.9647 177.982 35.1763C177.019 35.3878 176.067 35.4935 175.127 35.4935C173.976 35.4935 172.906 35.3643 171.919 35.1058C170.956 34.8472 170.11 34.4595 169.381 33.9425C168.676 33.402 168.112 32.744 167.689 31.9685C167.29 31.1695 167.078 30.2295 167.055 29.1484H171.073Z" fill="white"/>
</svg>
